<?xml version="1.0" standalone="no"?>
<!DOCTYPE svg PUBLIC "-//W3C//DTD SVG 20010904//EN"
 "http://www.w3.org/TR/2001/REC-SVG-20010904/DTD/svg10.dtd">
<svg version="1.0" xmlns="http://www.w3.org/2000/svg"
 width="3400.000000pt" height="3400.000000pt" viewBox="0 0 3400.000000 3400.000000"
 preserveAspectRatio="xMidYMid meet">
<metadata>
Created by potrace 1.14, written by Peter Selinger 2001-2017
</metadata>
<g transform="translate(0.000000,3400.000000) scale(0.100000,-0.100000)"
fill="#000000" stroke="none">
<path d="M3978 30165 c-2 -2 -25 -6 -53 -9 -27 -4 -61 -9 -75 -11 -14 -3 -41
-7 -60 -9 -31 -4 -105 -20 -150 -32 -8 -2 -44 -11 -80 -20 -35 -8 -69 -18 -75
-22 -5 -4 -12 -7 -15 -8 -3 0 -14 -4 -25 -8 -11 -4 -45 -17 -75 -29 -232 -87
-506 -267 -706 -465 -68 -67 -153 -160 -189 -206 -16 -21 -35 -44 -41 -50 -34
-36 -224 -342 -224 -362 0 -1 -14 -32 -31 -69 -63 -136 -137 -398 -155 -549
-3 -23 -7 -52 -11 -66 -10 -41 -11 -439 -2 -525 42 -389 157 -723 344 -1000
140 -207 -255 193 3458 -3508 1148 -1145 2601 -2593 3227 -3217 626 -624 2069
-2062 3205 -3195 3249 -3239 3299 -3288 3376 -3351 148 -120 227 -171 396
-259 119 -62 334 -139 448 -161 11 -2 31 -6 45 -9 14 -3 50 -10 80 -15 30 -6
65 -12 76 -14 46 -9 234 -20 344 -20 237 1 453 32 660 95 254 78 482 199 698
372 100 81 13025 13006 13117 13117 108 131 127 158 209 288 151 240 261 571
294 877 14 135 6 537 -13 605 -2 8 -6 31 -9 50 -45 285 -182 617 -353 850
-100 137 -162 208 -293 336 -345 336 -774 538 -1260 592 -36 4 -148 7 -250 7
-230 -1 -332 -10 -490 -46 -47 -11 -94 -22 -105 -24 -48 -11 -188 -60 -274
-97 -187 -79 -371 -193 -536 -330 -55 -46 -2643 -2627 -5752 -5736 l-5653
-5652 -429 427 c-236 236 -1233 1229 -2216 2208 -982 979 -2220 2212 -2750
2740 -530 528 -1797 1790 -2815 2805 -1018 1015 -2147 2139 -2508 2499 -371
370 -701 689 -757 735 -175 139 -332 235 -516 314 -76 32 -218 82 -249 87 -3
1 -14 4 -25 8 -27 9 -121 27 -270 52 -38 7 -481 15 -487 10z"/>
<path d="M4087 17364 c-1 -1 -40 -5 -87 -8 -295 -23 -539 -90 -801 -221 -434
-219 -836 -644 -1024 -1085 -56 -130 -115 -317 -128 -405 -3 -16 -8 -46 -11
-65 -14 -82 -17 -98 -24 -160 -10 -87 -9 -9554 1 -9653 4 -42 12 -101 18 -130
5 -28 12 -68 15 -87 9 -54 71 -264 100 -338 15 -37 49 -112 77 -167 27 -55 55
-110 61 -122 6 -13 14 -23 19 -23 4 0 7 -6 7 -12 0 -15 99 -155 178 -251 76
-93 237 -254 324 -324 40 -32 75 -60 78 -64 8 -8 170 -114 215 -140 200 -114
472 -214 665 -243 19 -3 46 -8 60 -10 161 -28 623 -29 720 -1 8 2 33 6 55 9
112 13 332 79 475 142 427 187 814 542 1047 959 40 73 54 101 97 198 26 59 91
254 100 298 2 13 11 56 20 95 8 38 18 92 21 120 4 27 9 60 13 74 10 38 12
9585 2 9660 -5 36 -11 83 -14 105 -29 219 -106 460 -214 667 -59 112 -82 149
-172 273 -84 117 -103 138 -240 275 -220 220 -448 373 -720 483 -185 74 -408
126 -615 143 -79 6 -313 12 -318 8z"/>
<path d="M29687 17364 c-1 -1 -40 -5 -87 -8 -89 -7 -220 -26 -290 -42 -14 -3
-32 -7 -40 -9 -69 -14 -263 -78 -309 -101 -14 -8 -30 -14 -35 -14 -22 0 -219
-108 -320 -175 -176 -117 -395 -313 -501 -450 -16 -21 -38 -47 -49 -58 -26
-27 -146 -209 -188 -287 -101 -183 -191 -440 -224 -640 -33 -199 -32 -131 -30
-5030 2 -3724 5 -4808 15 -4855 6 -33 14 -76 17 -95 3 -19 10 -53 16 -75 6
-22 12 -51 15 -64 7 -42 73 -238 99 -298 46 -105 57 -127 111 -221 214 -372
533 -679 918 -881 55 -29 101 -53 102 -52 2 0 22 -8 46 -18 120 -51 336 -112
467 -131 41 -6 89 -13 105 -16 17 -3 122 -7 235 -9 242 -4 367 7 545 47 114
25 244 65 312 94 17 8 34 14 38 14 3 0 59 26 123 58 305 151 565 369 791 662
73 95 177 262 221 355 39 84 99 235 93 235 -3 0 -1 6 5 13 14 16 68 239 90
368 16 98 17 388 17 4889 0 2632 -3 4812 -7 4845 -21 174 -36 249 -81 415 -24
84 -102 273 -154 369 -138 257 -352 510 -593 703 -81 64 -261 188 -274 188 -2
0 -30 15 -63 33 -138 78 -350 154 -533 192 -116 24 -147 29 -275 41 -65 6
-323 12 -328 8z"/>
</g>
</svg>
