<?xml version="1.0" encoding="UTF-8" standalone="no"?>
<!-- Created with Inkscape (http://www.inkscape.org/) -->

<svg
   version="1.1"
   id="svg2"
   width="58.666668"
   height="52"
   viewBox="0 0 58.666668 52"
   sodipodi:docname="VectorEPS_ByTailorBrands.eps"
   xmlns:inkscape="http://www.inkscape.org/namespaces/inkscape"
   xmlns:sodipodi="http://sodipodi.sourceforge.net/DTD/sodipodi-0.dtd"
   xmlns="http://www.w3.org/2000/svg"
   xmlns:svg="http://www.w3.org/2000/svg">
  <defs
     id="defs6" />
  <sodipodi:namedview
     id="namedview4"
     pagecolor="#ffffff"
     bordercolor="#000000"
     borderopacity="0.25"
     inkscape:showpageshadow="2"
     inkscape:pageopacity="0.0"
     inkscape:pagecheckerboard="0"
     inkscape:deskcolor="#d1d1d1" />
  <g
     id="g8"
     inkscape:groupmode="layer"
     inkscape:label="ink_ext_XXXXXX"
     transform="matrix(1.3333333,0,0,-1.3333333,0,52)">
    <g
       id="g10"
       transform="scale(0.1)">
      <path
         d="m 0,357.5 v 0 c 0,9.027 3.12891,16.703 9.39063,23.02 6.26167,6.32 13.86327,9.48 22.80467,9.48 v 0 c 8.5938,0 16.0977,-3.262 22.5078,-9.781 v 0 L 220,213.961 384.703,380.219 c 6.461,6.519 14.16,9.781 23.102,9.781 8.945,0 16.547,-3.16 22.804,-9.48 6.262,-6.317 9.391,-13.993 9.391,-23.02 0,-9.027 -3.227,-16.801 -9.687,-23.32 v 0 L 242.508,144.598 c -6.063,-6.121 -13.563,-9.18 -22.508,-9.18 -8.941,0 -16.445,3.059 -22.508,9.18 v 0 L 9.09375,334.18 C 3.03125,340.348 0,348.121 0,357.5 Z M 385,190.938 c 6.262,6.32 13.863,9.48 22.805,9.48 8.945,0 16.547,-3.16 22.804,-9.48 6.262,-6.317 9.391,-13.993 9.391,-23.02 v 0 V 32.5039 C 440,23.4727 436.871,15.8008 430.609,9.48047 424.352,3.16406 416.75,0.00390625 407.805,0.00390625 398.863,0.00390625 391.262,3.16406 385,9.48047 378.742,15.8008 375.609,23.4727 375.609,32.5039 v 0 135.4141 c 0,9.027 3.133,16.703 9.391,23.02 z m -375.60937,0 c 6.26167,6.32 13.86327,9.48 22.80467,9.48 8.9414,0 16.543,-3.16 22.8047,-9.48 6.2617,-6.317 9.3906,-13.993 9.3906,-23.02 v 0 V 32.5039 C 64.3906,23.4727 61.2617,15.8008 55,9.48047 48.7383,3.16406 41.1367,0.00390625 32.1953,0.00390625 23.2539,0.00390625 15.6523,3.16406 9.39063,9.48047 3.12891,15.8008 0,23.4727 0,32.5039 v 0 135.4141 c 0,9.027 3.12891,16.703 9.39063,23.02"
         style="fill:#141414;fill-opacity:1;fill-rule:nonzero;stroke:none"
         id="path12" />
    </g>
  </g>
</svg>
